Coordinates
version=1
nRows=60
nColumns=12
inDegrees=yes

Units are S.I. units (second, meters, Newtons, ...)
Angles are in degrees

endheader
time	SC_y	SC_z	SC_x	AC_y	AC_z	AC_x	GH_y	GH_z	GH_yy	EL_x	PS_y
       0.0              -44.87          2.359          56.44          68.93         -13.22         0.8635          27.34          30.61          27.52          90.15          152.1
   0.01256              -44.87          2.359          56.44          68.93         -13.22         0.8619          27.33          30.61          27.51          90.14          152.1
   0.02512              -44.87          2.358          56.43          68.93         -13.22         0.8601          27.31           30.6           27.5          90.13          152.1
   0.03768              -44.87          2.357          56.42          68.92         -13.22         0.8583          27.29          30.59           27.5          90.12          152.0
   0.05024              -44.87          2.357          56.41          68.92         -13.22         0.8563          27.27          30.59          27.49          90.11          152.0
    0.0628              -44.87          2.356           56.4          68.92         -13.22         0.8542          27.25          30.58          27.48           90.1          152.0
   0.07536              -44.87          2.355          56.39          68.92         -13.22         0.8519          27.23          30.57          27.47          90.09          152.0
   0.08792              -44.88          2.354          56.38          68.92         -13.22         0.8495          27.21          30.56          27.45          90.08          152.0
    0.1005              -44.88          2.353          56.37          68.91         -13.22         0.8469          27.19          30.56          27.44          90.07          151.9
     0.113              -44.88          2.352          56.36          68.91         -13.22         0.8441          27.16          30.55          27.43          90.06          151.9
    0.1256              -44.88           2.35          56.35          68.91         -13.22         0.8412          27.13          30.54          27.42          90.04          151.9
    0.1382              -44.88          2.349          56.33          68.91         -13.22         0.8379           27.1          30.53           27.4          90.03          151.9
    0.1507              -44.89          2.348          56.32           68.9         -13.22         0.8345          27.07          30.52          27.38          90.01          151.8
    0.1633              -44.89          2.346           56.3           68.9         -13.21         0.8308          27.03           30.5          27.37           90.0          151.8
    0.1758              -44.89          2.345          56.28           68.9         -13.21         0.8267           27.0          30.49          27.35          89.98          151.8
    0.1884              -44.89          2.343          56.26          68.89         -13.21         0.8223          26.96          30.48          27.33          89.96          151.7
     0.201               -44.9          2.341          56.24          68.89         -13.21         0.8176          26.91          30.46           27.3          89.94          151.7
    0.2135               -44.9          2.339          56.22          68.88         -13.21         0.8124          26.86          30.44          27.28          89.91          151.7
    0.2261               -44.9          2.337          56.19          68.88         -13.21         0.8067          26.81          30.42          27.25          89.89          151.6
    0.2386              -44.91          2.334          56.17          68.87         -13.21         0.8005          26.75           30.4          27.22          89.86          151.6
    0.2512              -44.91          2.331          56.14          68.87         -13.21         0.7937          26.69          30.38          27.19          89.83          151.5
    0.2638              -44.92          2.328           56.1          68.86         -13.21         0.7862          26.62          30.36          27.16          89.79          151.4
    0.2763              -44.92          2.325          56.07          68.85         -13.21         0.7779          26.54          30.33          27.12          89.76          151.4
    0.2889              -44.93          2.321          56.03          68.84         -13.21         0.7688          26.45           30.3          27.08          89.72          151.3
    0.3014              -44.94          2.317          55.98          68.83         -13.21         0.7586          26.36          30.27          27.03          89.67          151.2
     0.314              -44.94          2.313          55.93          68.82          -13.2         0.7472          26.25          30.23          26.97          89.62          151.1
    0.3266              -44.95          2.308          55.88          68.81          -13.2         0.7344          26.13          30.19          26.91          89.56          151.0
    0.3391              -44.96          2.302          55.81           68.8          -13.2         0.7201           26.0          30.14          26.85          89.49          150.9
    0.3517              -44.97          2.296          55.74          68.79          -13.2         0.7039          25.85          30.09          26.77          89.42          150.8
    0.3642              -44.99          2.288          55.66          68.77          -13.2         0.6855          25.68          30.03          26.68          89.34          150.6
    0.3768               -45.0           2.28          55.57          68.75         -13.19         0.6645          25.48          29.96          26.59          89.24          150.4
    0.3894              -45.02           2.27          55.46          68.73         -13.19         0.6404          25.25          29.88          26.47          89.13          150.2
    0.4019              -45.03          2.259          55.34           68.7         -13.19         0.6126          24.99          29.79          26.34          89.01          150.0
    0.4145              -45.06          2.246           55.2          68.67         -13.18         0.5802          24.69          29.68          26.19          88.86          149.7
     0.427              -45.08          2.231          55.03          68.64         -13.18         0.5424          24.34          29.56          26.01          88.69          149.4
    0.4396              -45.11          2.213          54.84           68.6         -13.17         0.4978          23.92          29.41           25.8          88.49          149.1
    0.4522              -45.15          2.192          54.61          68.55         -13.17         0.4448          23.43          29.24          25.55          88.25          148.6
    0.4647              -45.19          2.166          54.33           68.5         -13.16         0.3813          22.83          29.03          25.26          87.96          148.1
    0.4773              -45.24          2.136          53.99          68.43         -13.15         0.3045          22.12          28.78          24.89          87.61          147.5
    0.4898              -45.31          2.098          53.58          68.34         -13.14         0.2106          21.24          28.47          24.45          87.18          146.7
    0.5024              -45.38          2.052          53.07          68.24         -13.13        0.09473          20.15           28.1          23.91          86.66          145.7
    0.5149              -45.48          1.994          52.44          68.11         -13.11       -0.04975           18.8          27.62          23.23           86.0          144.5
    0.5275               -45.6          1.921          51.64          67.95         -13.09        -0.2317           17.1          27.03          22.38          85.17          143.0
    0.5401              -45.76          1.828          50.62          67.74         -13.06        -0.4631          14.94          26.27          21.29          84.12          141.1
    0.5526              -45.96           1.71          49.32          67.48         -13.02        -0.7593          12.17           25.3           19.9          82.78          138.7
    0.5652              -46.21          1.558          47.65          67.13         -12.98         -1.139          8.621          24.06          18.11          81.06          135.5
    0.5777              -46.54          1.363          45.52           66.7         -12.92         -1.625          4.084          22.47          15.83          78.85          131.5
    0.5903              -46.95          1.119          42.85          66.15         -12.85         -2.235         -1.621          20.47          12.97          76.08          126.5
    0.6029              -47.45          0.821          39.58          65.49         -12.76         -2.979         -8.574          18.04          9.474          72.71          120.3
    0.6154              -48.03         0.4758           35.8          64.72         -12.65         -3.841         -16.63          15.22          5.425          68.79          113.2
     0.628              -48.66          0.102           31.7          63.88         -12.54         -4.775         -25.36          12.16           1.04          64.55          105.5
    0.6405              -49.29        -0.2718           27.6          63.04         -12.43         -5.708         -34.08          9.108         -3.345          60.32          97.77
    0.6531              -49.87         -0.617          23.82          62.27         -12.33          -6.57         -42.14          6.287         -7.394           56.4          90.65
    0.6657              -50.37        -0.9148          20.56          61.61         -12.24         -7.314         -49.09          3.853         -10.89          53.03           84.5
    0.6782              -50.78         -1.159          17.88          61.06         -12.17         -7.925          -54.8          1.856         -13.75          50.26          79.46
    0.6908              -51.11         -1.354          15.75          60.62         -12.11          -8.41         -59.34         0.2672         -16.03          48.05          75.44
    0.7033              -51.37         -1.506          14.08          60.28         -12.06          -8.79         -62.89        -0.9763         -17.82          46.33           72.3
    0.7159              -51.57         -1.624          12.78          60.02         -12.03         -9.086         -65.66         -1.945         -19.21          44.99          69.86
    0.7285              -51.72         -1.717          11.76          59.81          -12.0         -9.318         -67.82         -2.702          -20.3          43.94          67.94
     0.741              -51.84          -1.79          10.97          59.65         -11.98           -9.5         -69.52         -3.298         -21.15          43.11          66.44
